# xmcd CD database file
#
# Track frame offsets:
#	150
#	18050
#	32650
#	45925
#	61125
#	74025
#	88500
#	105475
#	121025
#	136225
#	150975
#	165825
#	187275
#	205300
#	222650
#
# Disc length: 3192 seconds
#
# Revision: 0
# Processed by: cddbd v1.5.1PL2 Copyright (c) Steve Scherf et al.
# Submitted via: CDex 1.51
#
DISCID=c10c760f
DTITLE=柏原芳恵 - プライム・セレクション 柏原芳恵
DYEAR=2006
DGENRE=Japanese Pop
TTITLE0=No.1
TTITLE1=乙女心何色?
TTITLE2=ハロー・グッバイ
TTITLE3=恋人たちのキャフェテラス
TTITLE4=渚のシンデレラ
TTITLE5=あの場所から
TTITLE6=花梨(アルバム・バージョン)
TTITLE7=春なのに
TTITLE8=ちょっとなら媚薬
TTITLE9=カム・フラージュ
TTITLE10=悪戯 NIGHT DOLL
TTITLE11=最愛
TTITLE12=アザミ嬢のララバイ
TTITLE13=ロンリー・カナリア
TTITLE14=し・の・び・愛
EXTD=YEAR: 2006
EXTT0=
EXTT1=
EXTT2=
EXTT3=
EXTT4=
EXTT5=
EXTT6=
EXTT7=
EXTT8=
EXTT9=
EXTT10=
EXTT11=
EXTT12=
EXTT13=
EXTT14=
PLAYORDER=
